<?xml version="1.0" encoding="UTF-8" standalone="no"?>
<!-- Created with Inkscape (http://www.inkscape.org/) -->

<svg xmlns="http://www.w3.org/2000/svg" width="24" height="24" viewBox="0 0 24 24">
  <g
     id="g4208"
     transform="matrix(2.0714484,0,0,-1.730265,-12.857381,-1797.9219)">
    <path
       id="path4210"
       d="m 10.93709,-1049.3097 q 0.525484,-0.836 1.098738,-0.836 0.573255,0 1.14651,0.8837 0.01194,0.024 0.573255,1.0032 0.561312,0.9794 0.740454,1.3138 0.179142,0.3344 0.561312,1.0031 0.38217,0.6688 0.776283,1.3974 0.394113,0.7285 0.835997,1.4928 0.453826,0.7643 0.453826,0.8718 0,0.2508 -0.644911,0.2508 -0.644912,0 -1.301767,-0.8718 -0.358284,-0.4777 -1.755593,-2.9021 -1.385366,-2.4363 -1.397308,-2.4363 -0.155257,0 -1.588394,2.5199 -1.4331371,2.508 -1.8869639,3.0574 -0.4538268,0.5493 -1.06291,0.5493 -0.6090833,0 -0.6090833,-0.1672 0,-0.6807 4.0605552,-7.1298 z" />
  </g>
</svg>
